<?xml version="1.0" standalone="no"?>
<!DOCTYPE svg PUBLIC "-//W3C//DTD SVG 20010904//EN"
 "http://www.w3.org/TR/2001/REC-SVG-20010904/DTD/svg10.dtd">
<svg version="1.0" xmlns="http://www.w3.org/2000/svg"
 width="260.000000pt" height="260.000000pt" viewBox="0 0 260.000000 260.000000"
 preserveAspectRatio="xMidYMid meet">
<metadata>
Created by potrace 1.11, written by Peter Selinger 2001-2013
</metadata>
<g transform="translate(0.000000,260.000000) scale(0.100000,-0.100000)"
fill="#000000" stroke="none">
<path d="M803 2112 c-41 -3 -42 -3 -53 -55 -6 -29 -14 -63 -16 -77 -3 -14 -14
-68 -25 -120 -11 -52 -22 -104 -25 -115 -10 -55 -127 -600 -144 -675 -10 -47
-21 -97 -24 -111 -7 -40 -86 -412 -92 -432 -5 -16 7 -17 192 -15 l198 3 8 36
c14 69 18 89 23 117 3 15 8 35 11 44 3 10 7 30 10 45 3 16 7 35 9 43 2 8 7 29
10 45 2 17 7 39 9 50 3 11 23 108 45 215 57 271 72 331 83 328 5 -2 88 -147
184 -323 96 -176 191 -349 211 -385 20 -36 54 -100 77 -142 l41 -78 142 0
c140 0 143 0 148 22 14 61 55 247 59 273 3 17 8 39 10 50 18 80 36 165 40 188
2 15 7 35 10 45 3 9 7 28 10 42 2 14 19 93 36 175 37 171 33 156 55 255 9 41
19 86 21 100 3 14 25 119 50 234 24 117 40 212 35 215 -7 5 -289 6 -363 2 -17
-1 -24 -14 -33 -69 -5 -28 -29 -144 -40 -192 -2 -8 -15 -71 -29 -140 -83 -399
-113 -525 -125 -525 -13 0 -25 20 -126 210 -32 61 -73 137 -90 170 -18 33 -50
94 -72 135 -22 41 -57 107 -78 145 -21 39 -60 113 -88 165 -27 52 -51 97 -53
99 -4 5 -195 7 -251 3z"/>
</g>
</svg>
