<?xml version="1.0" encoding="UTF-8"?>
<svg width="124px" height="124px" viewBox="0 0 124 124" version="1.1" xmlns="http://www.w3.org/2000/svg" xmlns:xlink="http://www.w3.org/1999/xlink">
    <!-- Generator: Sketch 51.2 (57519) - http://www.bohemiancoding.com/sketch -->
    <title>Slice 1</title>
    <desc>Created with Sketch.</desc>
    <defs></defs>
    <g id="Page-1" stroke="none" stroke-width="1" fill="none" fill-rule="evenodd">
        <g id="noun_rotate-device_851803" fill="#FFFFFF" fill-rule="nonzero">
            <path d="M72,0.5 C65.7,0.5 60.5,5.7 60.5,12 L60.5,112 C60.5,118.3 65.7,123.5 72,123.5 L112,123.5 C118.3,123.5 123.5,118.3 123.5,112 L123.5,12 C123.5,5.7 118.3,0.5 112,0.5 L72,0.5 Z M72,3.5 L112,3.5 C116.2,3.5 119.60039,6.5 120.40039,10.5 L63.599609,10.5 C64.399609,6.5 67.8,3.5 72,3.5 Z M87,5.5 C86.2,5.5 85.5,6.2 85.5,7 C85.5,7.8 86.2,8.5 87,8.5 L97,8.5 C97.8,8.5 98.5,7.8 98.5,7 C98.5,6.2 97.8,5.5 97,5.5 L87,5.5 Z M63.5,13.5 L120.5,13.5 L120.5,105.5 L63.5,105.5 L63.5,13.5 Z M12,60.5 C5.7,60.5 0.5,65.7 0.5,72 L0.5,112 C0.5,118.3 5.7,123.5 12,123.5 L62.400391,123.5 C61.300391,122.6 60.399219,121.6 59.699219,120.5 L13.5,120.5 L13.5,63.5 L57,63.5 L57,60.5 L12,60.5 Z M10.5,63.599609 L10.5,120.30078 C6.5,119.60078 3.5,116.2 3.5,112 L3.5,72 C3.5,67.8 6.5,64.399609 10.5,63.599609 Z M7,85.5 C6.2,85.5 5.5,86.2 5.5,87 L5.5,97 C5.5,97.8 6.2,98.5 7,98.5 C7.8,98.5 8.5,97.8 8.5,97 L8.5,87 C8.5,86.2 7.8,85.5 7,85.5 Z M63.5,108.5 L120.5,108.5 L120.5,112 C120.5,116.7 116.7,120.5 112,120.5 L72,120.5 C67.3,120.5 63.5,116.7 63.5,112 L63.5,108.5 Z M92,109.5 C89.2,109.5 87,111.7 87,114.5 C87,117.3 89.2,119.5 92,119.5 C94.8,119.5 97,117.3 97,114.5 C97,111.7 94.8,109.5 92,109.5 Z M92,112.5 C93.1,112.5 94,113.4 94,114.5 C94,115.6 93.1,116.5 92,116.5 C90.9,116.5 90,115.6 90,114.5 C90,113.4 90.9,112.5 92,112.5 Z" id="Shape"></path>
        </g>
    </g>
</svg>